<svg width="78" height="80" viewBox="0 0 78 80" fill="none" xmlns="http://www.w3.org/2000/svg">
<g clip-path="url(#clip0_296_1549)">
<path d="M29.1186 14.3125L17.0706 26.6667H3.25C1.45438 26.6667 0 28.1583 0 30V50C0 51.8403 1.45438 53.3333 3.25 53.3333H17.0706L29.1186 65.6875C31.154 67.775 34.6667 66.3083 34.6667 63.3305V16.6694C34.6667 13.6889 31.1513 12.2278 29.1186 14.3125ZM60.7141 7.21805C59.2015 6.19999 57.1689 6.62916 56.1763 8.18333C55.1823 9.73471 55.6048 11.8194 57.1174 12.8375C66.0915 18.8778 71.4472 29.0319 71.4472 40.0014C71.4472 50.9708 66.0915 61.125 57.1174 67.1653C55.6048 68.1819 55.1823 70.268 56.1763 71.818C57.1296 73.3055 59.1459 73.8403 60.7141 72.7833C71.5366 65.4972 78 53.2403 78 40C78 26.7597 71.5366 14.5042 60.7141 7.21805ZM65 40C65 31.1764 60.6585 23.0639 53.3853 18.3C51.87 17.3083 49.8604 17.7694 48.9003 19.3361C47.9402 20.9028 48.3884 22.9764 49.9038 23.9694C55.2866 27.4958 58.5 33.4875 58.5 40C58.5 46.5125 55.2866 52.5042 49.9038 56.0305C48.3884 57.0222 47.9402 59.0958 48.9003 60.6639C49.7819 62.1028 51.7603 62.7667 53.3853 61.7C60.6585 56.9361 65 48.825 65 40ZM45.802 29.3236C44.2339 28.4444 42.2554 29.0236 41.386 30.6361C40.5207 32.2486 41.0935 34.275 42.6657 35.1653C44.414 36.15 45.5 38.0042 45.5 40C45.5 41.9972 44.414 43.85 42.6671 44.8347C41.0949 45.725 40.5221 47.7514 41.3874 49.3639C42.2581 50.9833 44.2379 51.5583 45.8033 50.6764C49.6261 48.5167 52.0014 44.4264 52.0014 39.9986C52.0014 35.5708 49.6261 31.4819 45.802 29.3236Z" fill="#0461CF"/>
</g>
<defs>
<clipPath id="clip0_296_1549">
<rect width="78" height="80" fill="white"/>
</clipPath>
</defs>
</svg>
